<svg xmlns="http://www.w3.org/2000/svg" xmlns:xlink="http://www.w3.org/1999/xlink" width="228" height="81" viewBox="0 0 228 81">
    <defs>
        <path id="prefix__a" d="M37.598 1.188L43.866 4.763 21.923 17.277 21.918 17.27 8.352 25.009 8.352 40.499 8.344 40.513 8.343 55.993 35.498 71.48 42.806 67.312 15.652 51.826 24.023 47.05 51.186 62.541 58.48 58.382 31.317 42.891 39.69 38.116 62.666 51.22 62.666 42.883 46.997 33.947 55.337 29.192 62.666 33.371 68.161 36.506 71 38.125 70.999 60.748 53.26 70.868 53.251 70.881 35.512 81 0.008 60.751 0.008 40.51 0 40.511 0.001 20.266 17.749 10.141 17.757 10.127 35.516 0"/>
    </defs>
    <g fill="none" fill-rule="evenodd">
        <path d="M16.075 29.72L49.245 10.499 49.246 10.5 51.324 9.295 53.39 10.493 53.382 10.507 71 20.718 70.999 30.311 60.285 24.101 60.284 24.102 51.319 18.906 24.366 34.525"/>
        <path fill="#2C2C2C" d="M16.075 29.72L49.245 10.499 49.246 10.5 51.324 9.295 53.39 10.493 53.382 10.507 71 20.718 70.999 30.311 60.285 24.101 60.284 24.102 51.319 18.906 24.366 34.525 16.075 29.72"/>
        <mask id="prefix__b" fill="#fff">
            <use xlink:href="#prefix__a"/>
        </mask>
        <path fill="#7762D1" d="M37.598 1.188L43.866 4.763 21.923 17.277 21.918 17.27 8.352 25.009 8.352 40.499 8.344 40.513 8.343 55.993 35.498 71.48 42.806 67.312 15.652 51.826 24.023 47.05 51.186 62.541 58.48 58.382 31.317 42.891 39.69 38.116 62.666 51.22 62.666 42.883 46.997 33.947 55.337 29.192 62.666 33.371 68.161 36.506 71 38.125 70.999 60.748 53.26 70.868 53.251 70.881 35.512 81 0.008 60.751 0.008 40.51 0 40.511 0.001 20.266 17.749 10.141 17.757 10.127 35.516 0 37.598 1.188" mask="url(#prefix__b)"/>
        <text font-family="Futura-Medium, Futura" font-size="26.667" font-weight="400">
            <tspan x="94" y="49" fill="#2C2C2C">Trade</tspan> <tspan x="163.57" y="49" fill="#7762D1" font-family="Futura-Bold, Futura" font-weight="bold">Chat</tspan>
        </text>
    </g>
</svg>
